<svg xmlns="http://www.w3.org/2000/svg" viewBox="0 0 220 260" width="220" height="260" role="img" aria-label="Crest of the Hand of Ord">
  <defs>
    <linearGradient id="sh4" x1="0" y1="0" x2="0" y2="1">
      <stop offset="0%" stop-color="#1f181a"/>
      <stop offset="100%" stop-color="#100b0d"/>
    </linearGradient>
  </defs>
  <path d="M110 12 L196 44 V128 q0 78 -86 116 Q24 206 24 128 V44 Z" fill="url(#sh4)" stroke="#b3122a" stroke-width="4"/>
  <path d="M110 24 L184 52 V126 q0 68 -74 102 Q36 194 36 126 V52 Z" fill="none" stroke="#2c2427" stroke-width="2"/>
  <!-- open hand / gauntlet -->
  <g fill="#0d0a0b" stroke="#c2c6cf" stroke-width="3" stroke-linejoin="round">
    <path d="M86 150 V104 q0 -8 8 -8 q8 0 8 8 V96 q0 -8 8 -8 q8 0 8 8 V96 q0 -8 8 -8 q8 0 8 8 V104 q0 -8 8 -8 q8 0 8 8 V150 q0 22 -22 22 H108 q-22 0 -22 -22 Z"/>
  </g>
  <line x1="110" y1="118" x2="110" y2="150" stroke="#7e7a80" stroke-width="2"/>
  <circle cx="110" cy="70" r="6" fill="#e2425a"/>
  <text x="110" y="200" fill="#c2c6cf" font-family="Cinzel, Georgia, serif" font-size="15" letter-spacing="3" text-anchor="middle">ORD</text>
</svg>
