<svg xmlns="http://www.w3.org/2000/svg" viewBox="0 0 220 260" width="220" height="260" role="img" aria-label="Crest of the Allegiance of Allsight">
  <defs>
    <linearGradient id="sh" x1="0" y1="0" x2="0" y2="1">
      <stop offset="0%" stop-color="#1f181a"/>
      <stop offset="100%" stop-color="#100b0d"/>
    </linearGradient>
  </defs>
  <path d="M110 12 L196 44 V128 q0 78 -86 116 Q24 206 24 128 V44 Z" fill="url(#sh)" stroke="#b3122a" stroke-width="4"/>
  <path d="M110 24 L184 52 V126 q0 68 -74 102 Q36 194 36 126 V52 Z" fill="none" stroke="#2c2427" stroke-width="2"/>
  <!-- eye -->
  <path d="M58 120 q52 -46 104 0 q-52 46 -104 0 Z" fill="none" stroke="#c2c6cf" stroke-width="4"/>
  <circle cx="110" cy="120" r="20" fill="#0d0a0b" stroke="#c2c6cf" stroke-width="3"/>
  <circle cx="110" cy="120" r="8" fill="#e2425a"/>
  <!-- rays -->
  <g stroke="#c2c6cf" stroke-width="3" opacity="0.85">
    <line x1="110" y1="64" x2="110" y2="80"/>
    <line x1="150" y1="78" x2="140" y2="90"/>
    <line x1="70" y1="78" x2="80" y2="90"/>
  </g>
  <text x="110" y="186" fill="#c2c6cf" font-family="Cinzel, Georgia, serif" font-size="15" letter-spacing="2" text-anchor="middle">ALLSIGHT</text>
</svg>
